<svg width="27" height="27" viewBox="0 0 27 27" fill="none" xmlns="http://www.w3.org/2000/svg">
<path d="M22.6232 18.0904C19.9266 16.4961 16.7682 15.578 13.5007 15.4387C10.2331 15.578 7.07478 16.4961 4.37812 18.0904C3.69063 18.5363 3.12669 19.1079 2.72701 19.7641C2.32732 20.4203 2.10186 21.1447 2.06688 21.885L1.6875 25.3125H25.3125L24.9345 21.885C24.8994 21.1447 24.6739 20.4203 24.2742 19.7642C23.8745 19.108 23.3106 18.5363 22.6232 18.0904V18.0904Z" stroke="#6E7191" stroke-width="2" stroke-linecap="round" stroke-linejoin="round"/>
<path d="M13.5 11.8125C14.5013 11.8125 15.48 11.5156 16.3126 10.9593C17.1451 10.403 17.794 9.61239 18.1771 8.68734C18.5603 7.76229 18.6606 6.74439 18.4652 5.76236C18.2699 4.78033 17.7877 3.87828 17.0797 3.17027C16.3717 2.46227 15.4697 1.98011 14.4876 1.78478C13.5056 1.58944 12.4877 1.68969 11.5627 2.07286C10.6376 2.45603 9.84696 3.1049 9.29068 3.93743C8.73441 4.76995 8.4375 5.74873 8.4375 6.75C8.4375 8.09266 8.97087 9.38033 9.92027 10.3297C10.8697 11.2791 12.1573 11.8125 13.5 11.8125V11.8125Z" stroke="#6E7191" stroke-width="2" stroke-linecap="round" stroke-linejoin="round"/>
</svg>
