<svg width="80" height="30" viewBox="0 0 80 30" fill="none" xmlns="http://www.w3.org/2000/svg">
<g clip-path="url(#clip0_2497_2743)">
<mask id="mask0_2497_2743" style="mask-type:alpha" maskUnits="userSpaceOnUse" x="8" y="5" width="20" height="20">
<circle cx="18" cy="15" r="10" fill="#D9D9D9"/>
</mask>
<g mask="url(#mask0_2497_2743)">
<path d="M29.2987 5H6.57141V14.9909H29.2987V5Z" fill="white"/>
<path d="M29.2987 14.991H6.57141V25.0001H29.2987V14.991Z" fill="#D52B1E"/>
<path d="M29.2987 11.6545H6.57141V18.3091H29.2987V11.6545Z" fill="#0039A6"/>
</g>
</g>
<circle cx="18" cy="15" r="9.5" stroke="#6E7191"/>
<path d="M32.98 10.2H37.25C38.4727 10.2 39.3967 10.494 40.022 11.082C40.6473 11.67 40.96 12.468 40.96 13.476C40.96 14.176 40.792 14.778 40.456 15.282C40.1293 15.7767 39.6347 16.1407 38.972 16.374L41.24 20H38.44L36.536 16.64H35.5V20H32.98V10.2ZM36.69 14.68C37.362 14.68 37.8193 14.582 38.062 14.386C38.314 14.1807 38.44 13.8773 38.44 13.476C38.44 13.0747 38.314 12.776 38.062 12.58C37.8193 12.3747 37.362 12.272 36.69 12.272H35.5V14.68H36.69ZM46.6393 20.182C45.986 20.182 45.3933 20.098 44.8613 19.93C44.3386 19.7527 43.8906 19.496 43.5173 19.16C43.1533 18.8147 42.8686 18.3853 42.6633 17.872C42.4673 17.3587 42.3693 16.7613 42.3693 16.08V10.2H44.8893V15.786C44.8893 16.542 45.02 17.116 45.2813 17.508C45.5426 17.8907 45.9953 18.082 46.6393 18.082C47.302 18.082 47.7593 17.8907 48.0113 17.508C48.2633 17.116 48.3893 16.5467 48.3893 15.8V10.2H50.9093V16.08C50.9093 16.7613 50.8113 17.3587 50.6153 17.872C50.4193 18.3853 50.1346 18.8147 49.7613 19.16C49.3973 19.496 48.9493 19.7527 48.4173 19.93C47.8946 20.098 47.302 20.182 46.6393 20.182Z" fill="#6E7191"/>
<path d="M59 13L64 18L69 13" stroke="#A0A3BC" stroke-width="2" stroke-linecap="round" stroke-linejoin="round"/>
<defs>
<clipPath id="clip0_2497_2743">
<rect width="20" height="20" fill="white" transform="translate(8 5)"/>
</clipPath>
</defs>
</svg>
